:version 1.10
:name ASF
:units
  mass 1
  length 1
  angle deg
:documentation
  ASF file generated by Kaydara
:root
  axis xyz
  order  tx ty tz rx ry rz
  position 0 0 0
  orientation 0 0 0
:bonedata
  begin
    id 1
    name LeftUpLegDummy
    direction 1 -2.30186e-007 -8.31532e-007
    length 2.93387
    axis 0 0 0 xyz
  end
  begin
    id 2
    name LeftUpLeg
    direction -1.82929e-007 -1 -1.48925e-009
    length 17.3336
    axis -3.48766 0.00143442 -0.000521554 xyz
    dof rx ry rz
  end
  begin
    id 3
    name LeftLeg
    direction -1.82929e-007 -1 -5.23717e-011
    length 14.9995
    axis 3.68178 -0.00654042 -0.000282425 xyz
    dof rx ry rz
  end
  begin
    id 4
    name LeftFoot
    direction 8.31532e-007 -4.54534e-011 1
    length 6.74421
    axis 1.87234e-006 4.66016e-005 -5.96866e-006 xyz
    dof rx ry rz
  end
  begin
    id 5
    name LeftToes
    direction 0.00818058 -0.00485161 0.999955
    length 3.85048
    axis 1.06247e-005 4.65869e-005 -5.96999e-006 xyz
    dof rx ry rz
  end
  begin
    id 6
    name SpineDummy
    direction -5.8607e-008 0.943407 -0.331637
    length 5.93572
    axis 0 0 0 xyz
  end
  begin
    id 7
    name Spine
    direction -1.04988e-007 0.999988 0.00495137
    length 10.1015
    axis -0.001389 0.000121417 6.61666e-006 xyz
    dof rx ry rz
  end
  begin
    id 8
    name Spine1
    direction 0 0 0
    length 0
    axis -0.001389 0.00012144 6.56766e-006 xyz
    dof rx ry rz
  end
  begin
    id 9
    name RightShoulderDummy
    direction -0.98348 0.17941 -0.0240696
    length 3.59882
    axis -0.001389 0.00012144 6.56766e-006 xyz
  end
  begin
    id 10
    name RightShoulder
    direction -0.978693 0.204882 0.0135597
    length 2.70001
    axis 0.215806 0.000203631 -0.00679732 xyz
    dof rx ry rz
  end
  begin
    id 11
    name RightArm
    direction -1 3.85509e-006 8.31394e-007
    length 10.2459
    axis -23.2009 -0.134239 -0.964098 xyz
    dof rx ry rz
  end
  begin
    id 12
    name RightForeArm
    direction -1 3.85569e-006 8.3129e-007
    length 8.16799
    axis -9.92322 0.0658061 0.17887 xyz
    dof rx ry rz
  end
  begin
    id 13
    name RightHand
    direction -0.992843 -0.0414604 0.112003
    length 5.28593
    axis -0.00960638 0.00330669 -0.185225 xyz
    dof rx ry rz
  end
  begin
    id 14
    name LeftShoulder1Dummy
    direction 0.983523 0.179172 -0.0240748
    length 3.59866
    axis -0.001389 0.00012144 6.56766e-006 xyz
  end
  begin
    id 15
    name LeftShoulder1
    direction 0.978627 0.205195 0.0135605
    length 2.70019
    axis -0.001389 0.00012144 6.57583e-006 xyz
    dof rx ry rz
  end
  begin
    id 16
    name LeftArm
    direction 1 3.51895e-006 -8.60188e-007
    length 10.2459
    axis -23.1894 0.134785 0.967513 xyz
    dof rx ry rz
  end
  begin
    id 17
    name LeftForeArm
    direction 1 3.51921e-006 -7.32029e-007
    length 8.16799
    axis -9.91835 -0.0656957 -0.177789 xyz
    dof rx ry rz
  end
  begin
    id 18
    name LeftHand
    direction 0.992938 -0.0411636 0.11126
    length 5.32135
    axis -0.00960237 -0.00340661 0.185177 xyz
    dof rx ry rz
  end
  begin
    id 19
    name HEadDummy
    direction 1.01974e-006 0.999861 -0.016675
    length 2.99946
    axis -0.001389 0.00012144 6.56766e-006 xyz
  end
  begin
    id 20
    name HEad
    direction -0.0222689 0.980941 0.193023
    length 5.12695
    axis -0.001389 0.00012144 6.56766e-006 xyz
    dof rx ry rz
  end
  begin
    id 21
    name RightUpLegDummy
    direction -1 2.30186e-007 8.31532e-007
    length 2.93387
    axis 0 0 0 xyz
  end
  begin
    id 22
    name RightUpLeg
    direction -1.82966e-007 -1 1.56832e-007
    length 17.3336
    axis -3.4909 -0.000906625 0.00028951 xyz
    dof rx ry rz
  end
  begin
    id 23
    name RightLeg
    direction -1.82786e-007 -1 -1.80317e-007
    length 14.9995
    axis 3.68513 0.0193739 -0.131021 xyz
    dof rx ry rz
  end
  begin
    id 24
    name RightFoot
    direction 8.31721e-007 -4.63324e-011 1
    length 6.74421
    axis 4.81691e-005 -0.120479 -0.188785 xyz
    dof rx ry rz
  end
  begin
    id 25
    name RightToes
    direction 0.00124746 -0.014064 0.9999
    length 3.85082
    axis 0.000481921 0.542163 -0.142575 xyz
    dof rx ry rz
  end
:hierarchy
  begin
    root LeftUpLegDummy SpineDummy RightUpLegDummy
    LeftUpLegDummy LeftUpLeg
    LeftUpLeg LeftLeg
    LeftLeg LeftFoot
    LeftFoot LeftToes
    SpineDummy Spine
    Spine Spine1
    Spine1 RightShoulderDummy LeftShoulder1Dummy HEadDummy
    RightShoulderDummy RightShoulder
    RightShoulder RightArm
    RightArm RightForeArm
    RightForeArm RightHand
    LeftShoulder1Dummy LeftShoulder1
    LeftShoulder1 LeftArm
    LeftArm LeftForeArm
    LeftForeArm LeftHand
    HEadDummy HEad
    RightUpLegDummy RightUpLeg
    RightUpLeg RightLeg
    RightLeg RightFoot
    RightFoot RightToes
  end

:SAMPLES-PER-SECOND 30
:FULLY-SPECIFIED
:DEGREES
68
root  -6.29012 33.942 -23.6578 4.32744 46.1623 2.74044
LeftUpLeg  -4.39441 7.87376 -2.00761
LeftLeg  12.0482 2.5022 0.366478
LeftFoot  -2.64523 -0.00220647 -0.0732865
LeftToes  -12.8368 1.61378e-006 8.80029e-008
Spine  3.82712 1.11387 -2.38172
Spine1  6.88367 2.83121 -5.23257
RightShoulder  0.0813 1.43436 -1.22504
RightArm  -3.54754 17.5092 81.1
RightForeArm  137.425 49.5358 167.74
RightHand  0.386948 -6.38791 -6.54906
LeftShoulder1  0.0496016 -2.30596 -5.27989
LeftArm  -9.62937 0.748236 -66.7756
LeftForeArm  28.5853 -25.4731 -4.81027
LeftHand  0.0813695 1.7615 4.82212
HEad  15.6718 -26.7352 -2.99356
RightUpLeg  -28.167 -24.0441 3.02555
RightLeg  21.4099 3.10126 0.988776
RightFoot  8.55302 -0.0180641 0.615363
RightToes  -40.3771 -0.221502 -0.317242
69
root  -5.8299 33.8438 -23.1673 5.96021 47.3824 4.36427
LeftUpLeg  -3.7941 7.41777 -2.86895
LeftLeg  12.233 1.79333 0.26819
LeftFoot  -3.6736 -0.00247231 -0.077102
LeftToes  -13.3419 1.61378e-006 8.80029e-008
Spine  3.77037 1.02908 -2.65276
Spine1  6.78326 2.62089 -5.73046
RightShoulder  0.0777648 1.45462 -1.34294
RightArm  -2.906 16.7974 82.0532
RightForeArm  137.35 49.2376 167.868
RightHand  0.407774 -6.21493 -7.12302
LeftShoulder1  0.0485846 -2.30739 -5.58009
LeftArm  -10.9864 0.961016 -66.6462
LeftForeArm  28.1181 -25.3581 -4.78552
LeftHand  0.0797754 1.82362 4.84308
HEad  15.8291 -27.5253 -3.25739
RightUpLeg  -28.8368 -27.4413 4.39601
RightLeg  12.5005 4.27997 0.664573
RightFoot  8.29326 -0.023436 0.734276
RightToes  -41.211 -0.228229 -0.321861
70
root  -5.32986 33.7284 -22.656 7.90201 48.6461 6.31649
LeftUpLeg  -3.35153 6.78711 -3.87005
LeftLeg  12.8766 1.1824 0.189888
LeftFoot  -4.90625 -0.00289355 -0.0675503
LeftToes  -13.8321 1.61378e-006 8.80029e-008
Spine  3.65743 0.980631 -2.92725
Spine1  6.59061 2.4722 -6.21597
RightShoulder  0.0722382 1.43366 -1.52738
RightArm  -2.77235 15.8901 82.9474
RightForeArm  137.432 48.7872 168.058
RightHand  0.409924 -6.03875 -7.38168
LeftShoulder1  0.0472374 -2.43945 -5.83047
LeftArm  -12.2419 1.55273 -66.668
LeftForeArm  28.0056 -24.3958 -4.57869
LeftHand  0.0849327 1.75819 5.14057
HEad  15.6127 -28.2212 -3.28437
RightUpLeg  -29.2504 -29.5247 4.76034
RightLeg  5.88984 4.82564 0.187315
RightFoot  7.98287 -0.0244279 0.760166
RightToes  -40.9255 -0.225919 -0.320291
71
root  -4.79309 33.5879 -22.0995 9.66465 50.0086 8.03628
LeftUpLeg  -3.11026 6.87567 -4.44094
LeftLeg  14.2954 -0.314096 -0.0605224
LeftFoot  -6.56432 0.00370558 0.0646074
LeftToes  -14.5859 1.61378e-006 8.80029e-008
Spine  3.46077 0.922382 -3.06424
Spine1  6.27887 2.28815 -6.40544
RightShoulder  0.0629508 1.19479 -1.59328
RightArm  -2.65149 14.898 83.7024
RightForeArm  138.085 48.2706 168.269
RightHand  0.413975 -5.68175 -7.94855
LeftShoulder1  0.0455861 -2.45217 -6.04708
LeftArm  -12.8096 2.56931 -66.7781
LeftForeArm  28.3536 -23.0332 -4.29111
LeftHand  0.0896142 1.84866 5.16067
HEad  15.2005 -29.0928 -3.42652
RightUpLeg  -28.3764 -27.4026 2.53172
RightLeg  2.48745 0.519295 -0.0101357
RightFoot  6.71644 0.0146296 0.128222
RightToes  -36.1222 -0.188271 -0.292186
72
root  -4.20906 33.4326 -21.4763 10.6869 51.5074 9.23186
LeftUpLeg  -2.58687 6.88899 -4.45711
LeftLeg  16.1958 -1.72824 -0.385412
LeftFoot  -8.48385 0.0210172 0.283351
LeftToes  -15.0516 1.61378e-006 8.80029e-008
Spine  3.27974 0.855634 -2.96509
Spine1  6.01592 2.07771 -6.14571
RightShoulder  0.0532846 0.899797 -1.49711
RightArm  -2.87955 13.9861 84.0187
RightForeArm  138.957 47.7757 168.466
RightHand  0.411854 -5.45096 -8.25533
LeftShoulder1  0.0436566 -2.36332 -6.30168
LeftArm  -13.0744 4.01183 -67.039
LeftForeArm  29.2771 -21.0903 -3.89105
LeftHand  0.0936599 1.98758 5.00786
HEad  15.1052 -29.6776 -3.91492
RightUpLeg  -26.7933 -25.5814 0.238038
RightLeg  2.25659 -4.84635 0.121844
RightFoot  6.22415 0.0462077 -0.472266
RightToes  -33.1405 -0.166134 -0.27319
73
root  -3.61044 33.316 -20.7499 10.445 53.3019 9.00928
LeftUpLeg  -1.58282 5.74378 -3.50771
LeftLeg  17.6133 -2.06396 -0.513924
LeftFoot  -10.0848 0.0344501 0.390428
LeftToes  -15.759 1.61378e-006 8.80029e-008
Spine  3.05607 0.683596 -2.45226
Spine1  5.70012 1.60475 -5.02606
RightShoulder  0.0415438 0.491842 -1.31048
RightArm  -3.68767 13.0272 83.8697
RightForeArm  139.582 47.2737 168.664
RightHand  0.383726 -5.46028 -7.6546
LeftShoulder1  0.0414747 -2.24258 -6.57934
LeftArm  -13.7463 6.16325 -67.6182
LeftForeArm  30.7783 -18.6605 -3.40541
LeftHand  0.0958997 2.10669 4.8263
HEad  14.7871 -30.061 -4.49401
RightUpLeg  -24.4561 -22.7734 -1.59901
RightLeg  2.23195 -10.5909 0.270037
RightFoot  9.98615 0.19205 -1.82025
RightToes  -31.4609 -0.15411 -0.261991
74
root  -3.0302 33.2319 -19.937 9.55318 55.1926 7.93605
LeftUpLeg  -0.600311 3.72561 -2.08845
LeftLeg  18.9498 -1.52552 -0.418595
LeftFoot  -11.3614 0.0324446 0.326155
LeftToes  -16.4661 1.61378e-006 8.80029e-008
Spine  2.73857 0.405879 -1.78255
Spine1  5.19637 0.936286 -3.57878
RightShoulder  0.0287476 0.0655992 -0.983848
RightArm  -4.67204 11.9974 83.4304
RightForeArm  141.066 46.7832 168.85
RightHand  0.343258 -5.10396 -7.31064
LeftShoulder1  0.0390664 -2.16521 -6.79073
LeftArm  -15.0387 9.26617 -68.1094
LeftForeArm  32.2451 -16.9499 -3.07189
LeftHand  0.107916 2.33298 4.91158
HEad  13.9723 -30.2875 -4.69475
RightUpLeg  -22.6242 -19.912 -2.46325
RightLeg  2.44348 -15.8015 0.343827
RightFoot  14.7889 0.584917 -4.12699
RightToes  -31.8849 -0.157114 -0.264851
75
root  -2.52717 33.2243 -19.1028 7.41101 56.4355 5.49079
LeftUpLeg  0.362458 1.77487 -0.0922083
LeftLeg  20.2451 -0.322321 -0.0982587
LeftFoot  -12.0928 0.00882458 0.0833024
LeftToes  -16.9664 1.61378e-006 8.80029e-008
Spine  2.47947 0.304402 -0.97434
Spine1  4.7574 0.675295 -1.96332
RightShoulder  0.0219341 -0.0395616 -0.594019
RightArm  -6.36251 10.4606 82.3131
RightForeArm  144.573 46.3328 169.013
RightHand  0.286442 -4.00364 -7.79851
LeftShoulder1  0.0364576 -2.17134 -6.9167
LeftArm  -17.1939 12.6646 -68.5235
LeftForeArm  33.4835 -15.2655 -2.74965
LeftHand  0.126123 2.68207 5.0008
HEad  13.1063 -30.2817 -4.36895
RightUpLeg  -20.7349 -18.1646 -1.77634
RightLeg  2.31436 -17.5774 0.420849
RightFoot  19.0056 1.05531 -5.92045
RightToes  -32.514 -0.161611 -0.269054
76
root  -2.08206 33.3323 -18.2639 4.73716 56.73 2.35104
LeftUpLeg  1.11913 0.752064 2.19052
LeftLeg  21.6295 0.977276 0.31396
LeftFoot  -11.3681 -0.0190093 -0.190995
LeftToes  -20.0623 1.61378e-006 8.80029e-008
Spine  2.35851 0.382512 -0.137943
Spine1  4.57461 0.804331 -0.335713
RightShoulder  0.0184135 0.115171 -0.0931272
RightArm  -7.95915 8.31608 80.3155
RightForeArm  150.588 46.0987 169.087
RightHand  0.149299 -1.74953 -9.34947
LeftShoulder1  0.0314759 -2.14237 -7.09734
LeftArm  -19.8395 15.6549 -68.8651
LeftForeArm  34.6405 -13.2063 -2.36312
LeftHand  0.144872 2.93055 5.27654
HEad  12.1183 -29.9905 -3.80287
RightUpLeg  -18.918 -17.1533 -0.10991
RightLeg  2.02455 -17.896 0.517379
RightFoot  19.5549 1.13619 -6.2085
RightToes  -29.4076 -0.139863 -0.247827
77
root  -1.68606 33.5165 -17.3957 3.28004 56.7552 0.680972
LeftUpLeg  1.51318 -0.0141754 3.85129
LeftLeg  23.4977 1.68042 0.60259
LeftFoot  -9.03736 -0.021228 -0.268617
LeftToes  -26.3494 1.61378e-006 8.80029e-008
Spine  2.35354 0.357713 0.35717
Spine1  4.60417 0.76779 0.609804
RightShoulder  0.017551 0.00793557 0.341704
RightArm  -9.16403 6.49124 78.8795
RightForeArm  154.617 46.2958 169.005
RightHand  0.0863691 -1.06037 -8.88793
LeftShoulder1  0.0268254 -2.06994 -7.07656
LeftArm  -22.4522 18.2243 -68.9728
LeftForeArm  36.1211 -10.9141 -1.94058
LeftHand  0.180035 3.53276 5.45221
HEad  11.6591 -29.405 -3.42823
RightUpLeg  -18.1514 -17.4125 1.2533
RightLeg  3.98795 -17.2388 -0.0828287
RightFoot  16.943 0.829142 -5.1848
RightToes  -26.2943 -0.119253 -0.225404
78
root  -1.32767 33.7141 -16.4999 2.86455 56.8912 0.196295
LeftUpLeg  1.29673 -0.809456 4.99193
LeftLeg  26.1667 1.9824 0.817134
LeftFoot  -5.78636 -0.0102315 -0.202458
LeftToes  -34.465 1.61378e-006 8.80029e-008
Spine  2.37237 0.105335 0.551857
Spine1  4.67682 0.279641 0.964256
RightShoulder  0.017597 -0.402621 0.681234
RightArm  -9.64488 5.46607 78.1828
RightForeArm  159.321 45.8551 169.163
RightHand  0.0141472 -0.173501 -8.62734
LeftShoulder1  0.0194302 -2.07369 -6.47618
LeftArm  -24.5238 20.7883 -69.0775
LeftForeArm  37.1993 -9.08237 -1.60796
LeftHand  0.209112 4.38559 5.07913
HEad  12.7317 -28.9209 -3.45032
RightUpLeg  -17.445 -20.1558 2.54697
RightLeg  5.54078 -14.3434 -0.454513
RightFoot  14.1021 0.488427 -3.56957
RightToes  -22.8866 -0.0981282 -0.199617
